<?xml version="1.0" encoding="iso-8859-1"?>
<!-- Uploaded to: SVG Repo, www.svgrepo.com, Generator: SVG Repo Mixer Tools -->
<svg fill="#000000" version="1.1" id="Layer_1" xmlns="http://www.w3.org/2000/svg" xmlns:xlink="http://www.w3.org/1999/xlink" 
	 viewBox="0 0 512 512" xml:space="preserve">
<g>
	<g>
		<path d="M255.479,347.014v-23.755h-15.642v23.876c-22.183,3.879-39.102,23.265-39.102,46.542c0,26.06,21.202,47.261,47.261,47.261
			c26.06,0,47.261-21.202,47.261-47.261C295.258,370.162,277.995,350.611,255.479,347.014z M247.997,425.297
			c-17.435,0-31.62-14.185-31.62-31.62s14.184-31.62,31.62-31.62c17.435,0,31.62,14.185,31.62,31.62
			S265.432,425.297,247.997,425.297z"/>
	</g>
</g>
<g>
	<g>
		<rect x="302.403" y="385.825" width="16.684" height="15.642"/>
	</g>
</g>
<g>
	<g>
		
			<rect x="284.76" y="341.234" transform="matrix(0.7071 -0.7071 0.7071 0.7071 -161.1039 309.1693)" width="15.777" height="15.641"/>
	</g>
</g>
<g>
	<g>
		
			<rect x="195.545" y="341.163" transform="matrix(0.7071 -0.7071 0.7071 0.7071 -187.2522 246.0361)" width="15.641" height="15.777"/>
	</g>
</g>
<g>
	<g>
		<rect x="177.271" y="385.825" width="15.642" height="15.642"/>
	</g>
</g>
<g>
	<g>
		<path d="M247.997,370.08c-13.012,0-23.597,10.585-23.597,23.597c0,13.012,10.585,23.597,23.597,23.597
			c13.012,0,23.597-10.585,23.597-23.597C271.594,380.665,261.008,370.08,247.997,370.08z M247.997,401.632
			c-4.387,0-7.955-3.568-7.955-7.955c0-4.387,3.568-7.955,7.955-7.955c4.387,0,7.955,3.568,7.955,7.955
			C255.952,398.064,252.384,401.632,247.997,401.632z"/>
	</g>
</g>
<g>
	<g>
		<rect x="152.244" y="457.776" width="16.684" height="15.642"/>
	</g>
</g>
<g>
	<g>
		<rect x="177.271" y="457.776" width="15.642" height="15.642"/>
	</g>
</g>
<g>
	<g>
		<rect x="201.255" y="457.776" width="14.599" height="15.642"/>
	</g>
</g>
<g>
	<g>
		<rect x="232.538" y="457.776" width="110.534" height="15.642"/>
	</g>
</g>
<g>
	<g>
		<path d="M349.955,291.064v-0.001l6.984-101.279h41.399V86.55h-34.279l1.726-25.026h16.912V45.882h-23.984V22.941h-62.566V0
			h-95.935v22.941h-62.566v22.941h-23.984v15.642h16.546l15.83,229.54h23.934v8.023H138.28l-17.137,197.069h16.503V512h15.642
			v-15.844h189.784V512h15.642v-15.844h16.137l-17.137-197.069h-31.326v-8.023H349.955z M362.981,102.191h19.716v71.951h-24.678
			L362.981,102.191z M215.853,15.642h64.652v7.299h-64.652V15.642z M153.287,38.582h189.784v7.299H153.287V38.582z M343.373,314.729
			l14.416,165.786H138.204l14.415-165.786H343.373z M185.613,299.086v-8.023h125.132v8.023H185.613z M160.639,275.422l-2.741-39.756
			h43.357v-15.642h-44.437l-1.078-15.642h21.531v-15.642h-22.61l-1.15-16.684h47.744v-15.642h-48.823l-1.007-14.599h25.847v-15.642
			h-26.925l-1.15-16.684h52.059V93.849h-53.138l-2.229-32.326h204.219l-14.751,213.898H160.639z"/>
	</g>
</g>
<g>
	<g>
		<rect x="215.853" y="93.849" width="16.684" height="15.642"/>
	</g>
</g>
<g>
	<g>
		<rect x="215.853" y="126.175" width="16.684" height="15.642"/>
	</g>
</g>
<g>
	<g>
		<rect x="215.853" y="156.415" width="16.684" height="15.642"/>
	</g>
</g>
<g>
	<g>
		<rect x="215.853" y="188.741" width="16.684" height="15.642"/>
	</g>
</g>
<g>
	<g>
		<rect x="215.853" y="220.024" width="16.684" height="15.642"/>
	</g>
</g>
<g>
	<g>
		<polygon points="318.681,171.687 311.815,251.308 302.403,251.308 302.403,266.949 326.166,266.949 334.265,173.031 		"/>
	</g>
</g>
<g>
	<g>
		<rect x="279.462" y="251.308" width="16.684" height="15.642"/>
	</g>
</g>
</svg>