<?xml version="1.0" encoding="iso-8859-1"?>
<!-- Uploaded to: SVG Repo, www.svgrepo.com, Generator: SVG Repo Mixer Tools -->
<!DOCTYPE svg PUBLIC "-//W3C//DTD SVG 1.1//EN" "http://www.w3.org/Graphics/SVG/1.1/DTD/svg11.dtd">
<svg fill="#000000" version="1.1" id="Capa_1" xmlns="http://www.w3.org/2000/svg" xmlns:xlink="http://www.w3.org/1999/xlink" 
	 width="800px" height="800px" viewBox="0 0 87.674 87.674"
	 xml:space="preserve">
<g>
	<path d="M0,66.75h51.877v2.197H0V66.75z M84.925,62.715c-6.907-1.521-8.599-8.77-8.989-14.875c-0.244-3.801-0.115-7.61-0.17-11.417
		c-0.027-1.806-0.078-3.618-0.273-5.415c-0.022-0.216-0.049-0.432-0.075-0.646c-0.015-0.089-0.048-0.323-0.054-0.359
		c-0.062-0.379-0.127-0.757-0.207-1.131c-0.151-0.704-0.329-1.405-0.574-2.082c-0.028-0.076-0.188-0.461-0.184-0.462
		c-0.037-0.082-0.074-0.165-0.115-0.246c-0.143-0.284-0.295-0.566-0.469-0.833c-0.069-0.107-0.142-0.214-0.215-0.318
		c-0.033-0.042-0.064-0.081-0.084-0.103c-0.199-0.226-0.408-0.445-0.639-0.642c-0.021-0.018-0.03-0.025-0.046-0.039
		c-0.12-0.086-0.239-0.173-0.362-0.254c-0.234-0.15-0.469-0.303-0.718-0.431c-0.442-0.228-0.446-0.255-0.996-0.356
		c-0.026-0.006-0.047-0.01-0.069-0.014c-0.029,0.002-0.068,0.004-0.125,0.006c-0.058,0.001-0.177,0.021-0.263,0.037
		c-0.135,0.047-0.287,0.102-0.144,0.025c-0.107,0.055-0.215,0.111-0.314,0.18c-0.02,0.014-0.029,0.02-0.045,0.03
		c-0.07,0.062-0.141,0.124-0.207,0.189c-0.105,0.108-0.207,0.22-0.305,0.334c-0.062,0.083-0.187,0.247-0.202,0.271
		c-0.111,0.173-0.224,0.346-0.324,0.526c-0.5,0.893-0.653,1.27-0.944,2.099c-0.347,0.988-0.635,1.994-0.912,3.002l0.804,0.044
		v30.871l-14.468,4.725H7.694H0l4.877-6.775c0.188-0.292,4.302-6.608,12.269-13.288v-6.59h6.375v1.816
		c6.812-4.53,14.186-7.706,21.9-9.465c-0.005-0.021-0.013-0.039-0.017-0.061c-0.088-0.537,0.275-1.045,0.813-1.133l8.021-1.314
		c0.539-0.088,1.045,0.276,1.134,0.814c0.013,0.077,0.013,0.153,0.008,0.229c2.319-0.159,4.663-0.19,7.021-0.103
		c0.377-1.397,0.746-2.798,1.25-4.156c0.679-1.824,1.537-3.935,3.098-5.2c1.754-1.424,3.859-1.896,6.018-1.079
		c1.936,0.732,3.627,2.036,4.76,3.771c1.818,2.787,2.272,6.321,2.49,9.567c0.252,3.77,0.12,7.552,0.172,11.328
		c0.025,1.854,0.078,3.711,0.269,5.556c0.028,0.28,0.058,0.561,0.093,0.841c0.006,0.045,0.012,0.081,0.014,0.11
		c0.006,0.032,0.012,0.071,0.021,0.125c0.062,0.399,0.126,0.798,0.206,1.193c0.15,0.751,0.328,1.499,0.57,2.226
		c0.076,0.23,0.153,0.461,0.242,0.688c0.018,0.043,0.092,0.212,0.125,0.292c0.123,0.26,0.248,0.519,0.391,0.767
		c0.169,0.29,0.344,0.578,0.541,0.849c0.008,0.01,0.012,0.016,0.018,0.022c0.014,0.017,0.027,0.031,0.045,0.052
		c0.105,0.123,0.213,0.247,0.328,0.363c0.152,0.155,0.307,0.31,0.471,0.45c0.036,0.03,0.142,0.108,0.209,0.159
		c0.228,0.155,0.459,0.307,0.705,0.434c0.108,0.056,0.219,0.108,0.328,0.16c0.088,0.034,0.223,0.089,0.262,0.102
		c0.354,0.118,0.709,0.216,1.07,0.294C88.861,59.085,87.688,63.323,84.925,62.715z M58.911,41.806
		c-20.044,0.319-33.849,7.506-40.985,14.833h21.345c-0.022-0.054-0.034-0.107-0.034-0.165c0-0.88,2.83-1.594,6.32-1.594
		c3.491,0,6.32,0.714,6.32,1.594c0,0.057-0.012,0.109-0.033,0.163l7.067-2.308V41.806z M65.396,56.253h-4.178v2.034h4.178V56.253z"
		/>
</g>
</svg>