<?xml version="1.0" encoding="iso-8859-1"?>
<!-- Uploaded to: SVG Repo, www.svgrepo.com, Generator: SVG Repo Mixer Tools -->
<svg fill="#000000" version="1.1" id="Layer_1" xmlns="http://www.w3.org/2000/svg" xmlns:xlink="http://www.w3.org/1999/xlink" 
	 viewBox="0 0 512 512" xml:space="preserve">
<g>
	<g>
		<path d="M463.961,302.438V56.045H48.039v246.393L0,414.53v41.424h512V414.53L463.961,302.438z M496.406,440.358H15.595V424.43
			h32.467v-15.595H19.409l41.439-96.691h339.671v-15.595H63.634V71.641h384.732v224.907h-32.253v15.595h35.042l41.439,96.691H160.35
			v15.595h336.055V440.358z"/>
	</g>
</g>
<g>
	<g>
		<rect x="63.66" y="408.837" width="16.635" height="15.595"/>
	</g>
</g>
<g>
	<g>
		<rect x="95.891" y="408.837" width="15.595" height="15.595"/>
	</g>
</g>
<g>
	<g>
		<rect x="128.121" y="408.837" width="15.595" height="15.595"/>
	</g>
</g>
<g>
	<g>
		<rect x="71.978" y="328.781" width="15.595" height="15.595"/>
	</g>
</g>
<g>
	<g>
		<rect x="95.891" y="328.781" width="15.595" height="15.595"/>
	</g>
</g>
<g>
	<g>
		<rect x="119.803" y="328.781" width="15.595" height="15.595"/>
	</g>
</g>
<g>
	<g>
		<rect x="143.716" y="328.781" width="16.635" height="15.595"/>
	</g>
</g>
<g>
	<g>
		<rect x="167.629" y="328.781" width="16.635" height="15.595"/>
	</g>
</g>
<g>
	<g>
		<rect x="191.542" y="328.781" width="16.635" height="15.595"/>
	</g>
</g>
<g>
	<g>
		<rect x="215.455" y="328.781" width="16.635" height="15.595"/>
	</g>
</g>
<g>
	<g>
		<rect x="240.407" y="328.781" width="15.595" height="15.595"/>
	</g>
</g>
<g>
	<g>
		<rect x="264.32" y="328.781" width="15.595" height="15.595"/>
	</g>
</g>
<g>
	<g>
		<rect x="288.233" y="328.781" width="15.595" height="15.595"/>
	</g>
</g>
<g>
	<g>
		<rect x="312.146" y="328.781" width="15.595" height="15.595"/>
	</g>
</g>
<g>
	<g>
		<rect x="336.059" y="328.781" width="15.595" height="15.595"/>
	</g>
</g>
<g>
	<g>
		<rect x="55.343" y="352.694" width="16.635" height="15.595"/>
	</g>
</g>
<g>
	<g>
		<rect x="80.295" y="352.694" width="15.595" height="15.595"/>
	</g>
</g>
<g>
	<g>
		<rect x="104.208" y="352.694" width="15.595" height="15.595"/>
	</g>
</g>
<g>
	<g>
		<rect x="128.121" y="352.694" width="15.595" height="15.595"/>
	</g>
</g>
<g>
	<g>
		<rect x="152.034" y="352.694" width="15.595" height="15.595"/>
	</g>
</g>
<g>
	<g>
		<rect x="175.947" y="352.694" width="15.595" height="15.595"/>
	</g>
</g>
<g>
	<g>
		<rect x="199.859" y="352.694" width="15.595" height="15.595"/>
	</g>
</g>
<g>
	<g>
		<rect x="223.772" y="352.694" width="16.635" height="15.595"/>
	</g>
</g>
<g>
	<g>
		<rect x="247.685" y="352.694" width="16.635" height="15.595"/>
	</g>
</g>
<g>
	<g>
		<rect x="271.598" y="352.694" width="16.635" height="15.595"/>
	</g>
</g>
<g>
	<g>
		<rect x="296.55" y="352.694" width="15.595" height="15.595"/>
	</g>
</g>
<g>
	<g>
		<rect x="320.463" y="352.694" width="15.595" height="15.595"/>
	</g>
</g>
<g>
	<g>
		<rect x="344.376" y="352.694" width="15.595" height="15.595"/>
	</g>
</g>
<g>
	<g>
		<rect x="376.607" y="328.781" width="15.595" height="15.595"/>
	</g>
</g>
<g>
	<g>
		<rect x="400.519" y="328.781" width="15.595" height="15.595"/>
	</g>
</g>
<g>
	<g>
		<rect x="424.432" y="328.781" width="15.595" height="15.595"/>
	</g>
</g>
<g>
	<g>
		<rect x="392.202" y="352.694" width="15.595" height="15.595"/>
	</g>
</g>
<g>
	<g>
		<rect x="416.115" y="352.694" width="15.595" height="15.595"/>
	</g>
</g>
<g>
	<g>
		<rect x="440.028" y="352.694" width="16.635" height="15.595"/>
	</g>
</g>
<g>
	<g>
		<rect x="407.797" y="376.607" width="16.635" height="15.595"/>
	</g>
</g>
<g>
	<g>
		<rect x="431.71" y="376.607" width="16.635" height="15.595"/>
	</g>
</g>
<g>
	<g>
		<rect x="456.663" y="376.607" width="15.595" height="15.595"/>
	</g>
</g>
<g>
	<g>
		<rect x="128.121" y="376.607" width="160.112" height="15.595"/>
	</g>
</g>
<g>
	<g>
		<rect x="296.55" y="376.607" width="31.191" height="15.595"/>
	</g>
</g>
<g>
	<g>
		<rect x="336.059" y="376.607" width="32.23" height="15.595"/>
	</g>
</g>
<g>
	<g>
		<rect x="48.065" y="376.607" width="32.23" height="15.595"/>
	</g>
</g>
<g>
	<g>
		<rect x="87.573" y="376.607" width="32.23" height="15.595"/>
	</g>
</g>
<g>
	<g>
		<rect x="247.685" y="80.295" width="16.635" height="15.595"/>
	</g>
</g>
<g>
	<g>
		<polygon points="279.913,80.293 279.913,95.888 424.43,95.888 424.43,272.636 87.571,272.636 87.571,95.888 232.087,95.888 
			232.087,80.293 71.976,80.293 71.976,288.231 440.025,288.231 440.025,80.293 		"/>
	</g>
</g>
<g>
	<g>
		<polygon points="111.484,248.722 111.484,208.174 95.888,208.174 95.888,264.317 135.396,264.317 135.396,248.722 		"/>
	</g>
</g>
<g>
	<g>
		<rect x="152.034" y="248.725" width="15.595" height="15.595"/>
	</g>
</g>
</svg>